Coordinates
version=1
nRows=17
nColumns=40
inDegrees=yes

Units are S.I. units (second, meters, Newtons, ...)
If the header above contains a line with 'inDegrees', this indicates whether rotational values are in degrees (yes) or radians (no).

endheader
time	pelvis_tilt	pelvis_list	pelvis_rotation	pelvis_tx	pelvis_ty	pelvis_tz	hip_flexion_r	hip_adduction_r	hip_rotation_r	knee_angle_r	knee_angle_r_beta	ankle_angle_r	subtalar_angle_r	mtp_angle_r	hip_flexion_l	hip_adduction_l	hip_rotation_l	knee_angle_l	knee_angle_l_beta	ankle_angle_l	subtalar_angle_l	mtp_angle_l	lumbar_extension	lumbar_bending	lumbar_rotation	arm_flex_r	arm_add_r	arm_rot_r	elbow_flex_r	pro_sup_r	wrist_flex_r	wrist_dev_r	arm_flex_l	arm_add_l	arm_rot_l	elbow_flex_l	pro_sup_l	wrist_flex_l	wrist_dev_l
      0.35000000	     18.58324894	     -3.89677794	     -0.93511332	      0.29881938	      0.90491330	     -0.21697046	    -26.89599877	      7.26768548	     -0.67771817	      3.78726983	      0.06610033	      8.43597042	      0.00000000	      0.00000000	      8.57957408	     -6.45743746	     -3.87832461	     31.75326911	      0.55419909	      5.15894031	      0.00000000	      0.00000000	    -40.42127680	      1.55059040	      9.39282971	      7.22941716	     -6.63983897	     -7.83707175	     57.47249319	     87.95215116	     -4.80471669	      1.73581629	     -3.44906285	     -5.49600301	      3.38474094	     22.02183879	     88.99966596	    -17.58480051	      0.31225674
      0.36000000	     18.39289057	     -3.99434944	     -0.83646817	      0.31375795	      0.90201675	     -0.21726548	    -27.94874322	      7.44161544	     -0.73876084	      3.43033446	      0.05987063	      9.20764411	      0.00000000	      0.00000000	      9.36264427	     -6.31866577	     -3.60016294	     28.46060604	      0.49673128	      5.12706506	      0.00000000	      0.00000000	    -40.27443045	      1.58069659	      9.56349544	      7.50425531	     -6.89580075	     -7.36428796	     58.66187799	     87.93661584	     -4.63488503	      1.69614124	     -3.77382117	     -5.38850820	      2.95322839	     21.35378027	     89.00260636	    -17.76851046	      0.40174391
      0.37000000	     18.18318417	     -3.90453801	     -0.84012021	      0.32887105	      0.89898569	     -0.21738071	    -28.89743155	      7.38561498	     -1.00345226	      3.26320159	      0.05695361	     10.09928903	      0.00000000	      0.00000000	      9.96688989	     -6.01281280	     -3.66049981	     25.09633714	      0.43801371	      4.69822629	      0.00000000	      0.00000000	    -40.13996790	      1.37085626	      9.63755922	      7.77841198	     -7.06439484	     -6.99733049	     59.77684739	     87.96680153	     -4.45309950	      1.79307959	     -4.16931440	     -5.33303361	      2.45253596	     20.92592503	     89.00001193	    -18.07425572	      0.40175241
      0.38000000	     17.64258171	     -4.09101026	     -0.70006953	      0.34378621	      0.89523873	     -0.21786092	    -29.32589658	      7.65461024	     -1.14775030	      3.41370809	      0.05958045	     11.03740298	      0.00000000	      0.00000000	     10.98930506	     -5.93190398	     -3.14052353	     22.10119546	      0.38573863	      4.35390565	      0.00000000	      0.00000000	    -39.66648080	      1.51682156	      9.77475036	      8.07709150	     -7.27329900	     -6.65832098	     60.67530717	     87.97019451	     -4.30723200	      1.80844349	     -4.44027676	     -5.22441961	      2.01939289	     20.33616563	     89.00227670	    -18.29433593	      0.46119781
      0.39000000	     16.99467803	     -4.29152839	     -0.57602633	      0.35874956	      0.89128292	     -0.21833524	    -29.53673978	      7.92195506	     -1.40287062	      3.78243621	      0.06601597	     11.99815064	      0.00000000	      0.00000000	     12.05934240	     -5.87219978	     -2.51829608	     19.39558771	      0.33851687	      3.84693386	      0.00000000	      0.00000000	    -39.08143225	      1.66866110	      9.91613014	      8.37128553	     -7.45262499	     -6.39761807	     61.41419579	     87.99986981	     -4.17755164	      1.82309907	     -4.69122644	     -5.12921883	      1.62776016	     19.80554257	     89.00782367	    -18.50110683	      0.50961092
      0.40000000	     16.30063000	     -4.60963290	     -0.49338691	      0.37395458	      0.88724254	     -0.21884946	    -29.64983754	      8.25702043	     -1.62456529	      4.28479134	      0.07478372	     12.80676647	      0.00000000	      0.00000000	     13.11249665	     -5.96269641	     -1.89092428	     17.09781996	      0.29841325	      3.48542580	      0.00000000	      0.00000000	    -38.40628795	      1.91638635	     10.17552711	      8.62737745	     -7.65974736	     -6.14595337	     61.93514921	     87.99989048	     -4.08070139	      1.80409773	     -4.91442333	     -5.02378126	      1.32801697	     19.29129353	     89.00571685	    -18.62490949	      0.58463866
      0.41000000	     15.70779353	     -4.72606072	     -0.35461649	      0.38924648	      0.88350113	     -0.21959417	    -29.71947650	      8.38039172	     -1.97505443	      5.14267208	      0.08975656	     13.57980997	      0.00000000	      0.00000000	     13.97130053	     -5.82399038	     -1.26170587	     15.14836513	      0.26438885	      2.68395797	      0.00000000	      0.00000000	    -37.83829200	      2.02060579	     10.26785080	      8.84656593	     -7.78201651	     -6.11209984	     62.39992261	     88.04678345	     -3.97860223	      1.92148425	     -5.07157752	     -4.94533567	      1.13621905	     18.75436041	     89.02085765	    -18.84130608	      0.60954019
      0.42000000	     15.10156308	     -4.96574016	     -0.26429401	      0.40486146	      0.87977800	     -0.22037277	    -29.75985684	      8.56656994	     -2.11821198	      6.07165125	      0.10597031	     14.06523259	      0.00000000	      0.00000000	     14.84870285	     -5.86383511	     -0.93303998	     13.87238647	      0.24211882	      2.45075981	      0.00000000	      0.00000000	    -37.18425596	      2.22645861	     10.45753923	      9.03345032	     -7.93645265	     -6.01131054	     62.59483031	     88.09407696	     -3.91896671	      1.89516700	     -5.25104649	     -4.84830702	      0.91364878	     18.32650403	     89.01193016	    -18.91505476	      0.68924825
      0.43000000	     14.66276401	     -5.03873201	     -0.30606530	      0.42052033	      0.87663749	     -0.22106173	    -29.78582378	      8.47059646	     -2.32022509	      7.43638314	      0.12978937	     14.50812875	      0.00000000	      0.00000000	     15.43793814	     -5.75585399	     -0.49431556	     13.03285207	      0.22746618	      1.87415463	      0.00000000	      0.00000000	    -36.72841070	      2.22473627	     10.59172348	      9.24831499	     -8.00577407	     -5.97075760	     62.66148578	     88.12879396	     -3.84281963	      1.86600444	     -5.38496731	     -4.75771165	      0.71155953	     17.88072090	     89.02858458	    -18.99537130	      0.78859504
      0.44000000	     14.27547978	     -5.05076938	     -0.32708238	      0.43653513	      0.87376350	     -0.22192976	    -29.80561474	      8.28753519	     -2.48147225	      8.94435531	      0.15610845	     14.54121820	      0.00000000	      0.00000000	     15.99232003	     -5.60889492	     -0.43268408	     12.86463202	      0.22453019	      1.55884571	      0.00000000	      0.00000000	    -36.27374924	      2.16423724	     10.72576480	      9.37106046	     -8.09404610	     -6.04152613	     62.53420675	     88.14637323	     -3.80772259	      1.84636173	     -5.50964965	     -4.68444669	      0.59650020	     17.53380068	     89.03311292	    -19.03033661	      0.87784379
      0.45000000	     13.97526654	     -4.97897083	     -0.39390684	      0.45283854	      0.87125917	     -0.22282181	    -29.81706030	      7.95607340	     -2.58698892	     10.67898844	      0.18638351	     14.26183063	      0.00000000	      0.00000000	     16.42958901	     -5.39231513	     -0.40732093	     13.25642619	      0.23136828	      1.32063048	      0.00000000	      0.00000000	    -35.87752993	      2.02762277	     10.86281524	      9.43279987	     -8.13035452	     -6.19238921	     62.26767721	     88.15033010	     -3.80824193	      1.83865680	     -5.60363678	     -4.62531716	      0.53141288	     17.23611975	     89.03613995	    -19.03481267	      0.95844659
      0.46000000	     13.85425043	     -4.73794648	     -0.59162503	      0.46944102	      0.86938493	     -0.22374544	    -29.82586991	      7.33404810	     -2.76858992	     12.82368029	      0.22381544	     13.71283309	      0.00000000	      0.00000000	     16.56125799	     -5.05654826	     -0.94965025	     14.02153463	      0.24472195	      1.09481054	      0.00000000	      0.00000000	    -35.65982122	      1.67313196	     11.01855286	      9.41074327	     -8.19366074	     -6.30244247	     61.93232731	     88.18171417	     -3.76836948	      1.73686894	     -5.66163010	     -4.55711753	      0.56050566	     16.97221590	     89.04014285	    -18.99604558	      1.09352871
      0.47000000	     13.81447438	     -4.42908826	     -0.77465458	      0.48634906	      0.86785361	     -0.22475816	    -29.82914660	      6.61907645	     -2.85957475	     15.12299233	      0.26394601	     12.69291992	      0.00000000	      0.00000000	     16.62750800	     -4.65186524	     -1.32150776	     15.30709678	      0.26715924	      0.93660733	      0.00000000	      0.00000000	    -35.48863358	      1.27709334	     11.16051420	      9.31441978	     -8.19493179	     -6.57384193	     61.43866351	     88.18297314	     -3.79335451	      1.65233587	     -5.69466602	     -4.50782815	      0.60707904	     16.77724835	     89.04168193	    -18.93304670	      1.20708721
      0.48000000	     13.88589094	     -4.06229069	     -0.89421395	      0.50350338	      0.86669839	     -0.22586462	    -29.82490390	      5.85961241	     -2.92208153	     17.60843440	      0.30732516	     11.36115445	      0.00000000	      0.00000000	     16.58811225	     -4.16247151	     -1.37481207	     16.97936414	      0.29634581	      0.76873432	      0.00000000	      0.00000000	    -35.39689971	      0.85962176	     11.22096602	      9.16898894	     -8.13347352	     -6.95991041	     60.81237638	     88.16398854	     -3.86931682	      1.64453148	     -5.70395806	     -4.48354773	      0.64141598	     16.62608616	     89.04573974	    -18.87938776	      1.27700934
      0.49000000	     14.12809861	     -3.55848883	     -1.06171704	      0.52105532	      0.86613249	     -0.22710247	    -29.82072811	      4.86981787	     -3.23237990	     20.38369826	      0.35576265	      9.20278191	      0.00000000	      0.00000000	     16.25691397	     -3.56925310	     -1.98204995	     18.80098145	      0.32813903	      0.69990308	      0.00000000	      0.00000000	    -35.49112162	      0.30974082	     11.27001833	      8.89348833	     -8.11447163	     -7.28348227	     60.21342663	     88.18431169	     -3.94265518	      1.54447130	     -5.70164155	     -4.47020690	      0.76336325	     16.58819514	     89.04247642	    -18.77566583	      1.37411284
      0.50000000	     14.48374988	     -2.96765513	     -1.24141065	      0.53883202	      0.86603816	     -0.22835131	    -29.81013991	      3.77168226	     -3.49148672	     23.26050315	      0.40597237	      6.69929884	      0.00000000	      0.00000000	     15.73163784	     -2.86007167	     -2.28757765	     20.70896089	      0.36143955	      0.57201552	      0.00000000	      0.00000000	    -35.66867568	     -0.31968425	     11.31309260	      8.56359614	     -8.04433775	     -7.73635606	     59.44222881	     88.17987106	     -4.07104889	      1.45174675	     -5.66177023	     -4.47485544	      0.88055758	     16.62551547	     89.04075696	    -18.65815072	      1.46608222
      0.51000000	     14.96759209	     -2.29407072	     -1.38224949	      0.55681825	      0.86643851	     -0.22983921	    -29.79349393	      2.56901974	     -3.85956569	     26.23608719	      0.45790610	      3.71663128	      0.00000000	      0.00000000	     14.96798820	     -2.01511625	     -2.47634378	     22.56761479	      0.39387918	      0.46072767	      0.00000000	      0.00000000	    -35.96036927	     -0.97725170	     11.29210293	      8.17477241	     -7.95469432	     -8.25478293	     58.57373749	     88.17741187	     -4.25097393	      1.35437357	     -5.59957335	     -4.47354790	      1.00034327	     16.75929982	     89.03884549	    -18.52374302	      1.55446489
